PathFileType	4	(X/Y/Z)	C:/Users/opensim2020/Desktop/walking_exp_matlab/subject03_walking04_straight_02.trc	
DataRate	CameraRate	NumFrames	NumMarkers	Units	OrigDataRate	OrigDataStartFrame	OrigNumFrames	
100.00	100.00	4	51	mm	100.00	1637	259	
Frame#	Time	LFHD			RFHD			LBHD			RBHD			C7			T10			CLAV			STRN			RBAK			LSHO			LUPA			LELB			LFRM			LWRA			LWRB			LFIN			RSHO			RUPA			RELB			RFRM			RWRA			RWRB			RFIN			LASI			RASI			LPSI			RPSI			LTHI			LKNE			LTIB			LANK			LHEE			LTOE			RTHI			RKNE			RTIB			RANK			RHEE			RTOE			*39			*40			*41			*42			*43			*44			*45			*46			*47			*48			*49			*50			
		X1	Y1	Z1	X2	Y2	Z2	X3	Y3	Z3	X4	Y4	Z4	X5	Y5	Z5	X6	Y6	Z6	X7	Y7	Z7	X8	Y8	Z8	X9	Y9	Z9	X10	Y10	Z10	X11	Y11	Z11	X12	Y12	Z12	X13	Y13	Z13	X14	Y14	Z14	X15	Y15	Z15	X16	Y16	Z16	X17	Y17	Z17	X18	Y18	Z18	X19	Y19	Z19	X20	Y20	Z20	X21	Y21	Z21	X22	Y22	Z22	X23	Y23	Z23	X24	Y24	Z24	X25	Y25	Z25	X26	Y26	Z26	X27	Y27	Z27	X28	Y28	Z28	X29	Y29	Z29	X30	Y30	Z30	X31	Y31	Z31	X32	Y32	Z32	X33	Y33	Z33	X34	Y34	Z34	X35	Y35	Z35	X36	Y36	Z36	X37	Y37	Z37	X38	Y38	Z38	X39	Y39	Z39	X40	Y40	Z40	X41	Y41	Z41	X42	Y42	Z42	X43	Y43	Z43	X44	Y44	Z44	X45	Y45	Z45	X46	Y46	Z46	X47	Y47	Z47	X48	Y48	Z48	X49	Y49	Z49	X50	Y50	Z50	X51	Y51	Z51	

98	0.970	1655.38269	514.65668	1628.38464	1523.18640	530.42188	1636.28271	1663.13806	640.48767	1576.03796	1532.96167	650.99719	1584.52295	1605.97876	670.74872	1425.09436	1609.04431	708.59717	1112.77515	1591.38806	549.08832	1347.86768	1595.70874	507.96967	1182.26050	1516.43164	734.96161	1249.98547	1750.10181	574.53943	1386.06897	1820.96594	554.25659	1191.92041	1828.72375	528.40125	1070.87805	1819.60571	485.58984	948.30615	1783.60718	459.80884	833.89374	1839.20313	466.70325	837.65662	1825.25647	439.62238	758.86749	1437.83447	612.66425	1370.06348	1372.58276	613.82391	1144.45959	1362.94849	594.18408	1032.77368	1364.59973	572.75433	897.67218	1402.00671	536.98999	805.62134	1359.52539	569.67340	797.51123	1366.91479	536.23352	732.93658	1717.97559	536.68225	948.55682	1479.72559	549.14642	945.65167	1674.55676	699.98145	973.43243	1525.65710	706.72961	973.65027	1752.45972	594.89386	646.05280	1708.61804	596.59650	469.43134	1710.32043	652.22882	281.10916	1666.59631	677.92377	73.44025	1630.77527	719.01678	39.01754	1641.73523	525.29608	34.78873	1436.79907	540.76764	651.70654	1463.56506	477.62579	483.57858	1460.77734	595.44116	334.21399	1501.81140	730.70715	166.55099	1554.98096	785.71863	161.25102	1517.23059	637.61456	61.43893	1609.38245	605.26746	1682.78906																																	 
99	0.980	1654.84814	504.72049	1627.96008	1522.67615	520.51477	1635.62012	1662.87927	630.74994	1576.16943	1532.51221	641.28491	1584.26807	1605.82471	661.43793	1424.65088	1609.34985	699.20776	1112.36853	1591.51270	540.01678	1347.53589	1596.26111	498.65552	1181.86389	1516.86328	725.85992	1249.38647	1750.03235	565.55188	1386.37537	1821.63562	543.26062	1193.01477	1829.49890	514.95752	1072.62500	1819.85291	469.12634	951.25006	1783.27869	440.29562	837.64795	1838.85852	447.34879	841.03461	1824.95544	417.55582	763.48285	1437.92383	603.99603	1369.41797	1372.48889	607.45209	1143.87561	1362.40881	588.93127	1032.06409	1364.27588	568.12439	896.78638	1401.26050	532.31262	804.67322	1359.34326	565.87598	796.52631	1366.59741	532.60828	731.61493	1718.55481	527.52203	947.99756	1480.25781	539.49640	945.34821	1674.63452	690.81714	972.96558	1525.72839	697.14227	973.24591	1752.57861	588.24762	645.55890	1708.85999	591.97650	468.94775	1710.16858	649.69843	281.18588	1666.43335	677.64124	73.81834	1630.55713	718.79431	39.65864	1641.78711	525.13141	34.77077	1437.08899	528.37970	652.51642	1464.84778	462.30173	485.42453	1462.00769	574.40228	331.06522	1503.04956	702.71869	157.68802	1556.17114	757.56079	149.69373	1518.84766	603.85516	58.52982	1616.23389	596.54578	1686.35681																																	 
100	0.990	1654.34241	494.73227	1627.44617	1522.19702	510.53812	1634.79700	1662.92419	621.21484	1576.34082	1532.15417	631.52148	1584.00500	1605.72217	652.31622	1424.26709	1609.65454	689.88599	1111.90161	1591.65381	530.85614	1347.12256	1596.82886	489.50851	1181.45068	1517.29065	716.64612	1248.60400	1749.92395	556.62860	1386.61255	1822.29602	532.30212	1193.95068	1830.31396	501.81509	1074.07556	1820.20483	452.75748	954.05481	1782.97424	420.84506	841.58258	1838.47864	428.12537	844.39264	1824.54321	395.80112	768.16992	1437.97095	595.10767	1368.64526	1372.32727	600.83014	1143.17847	1361.99683	583.37286	1031.22986	1363.88220	563.31909	895.79498	1400.54297	527.67267	803.53259	1359.27917	561.74036	795.45630	1366.24133	528.88898	730.00867	1719.14685	518.71002	947.38519	1480.76965	529.61041	945.01709	1674.63135	681.77521	972.40265	1525.80457	687.57611	972.69977	1752.66089	581.63153	645.07184	1709.09363	587.47363	468.49973	1710.12476	647.02979	281.32480	1666.29211	677.32990	74.22011	1630.34619	718.65485	40.24168	1641.72998	524.73566	34.82623	1437.38904	515.70367	653.12115	1465.98938	447.56772	487.05917	1463.14270	553.51361	327.63077	1504.57483	673.80957	148.56175	1557.36353	728.51624	137.72316	1520.58618	569.41010	55.61005																																				 
101	1.000	1653.73340	484.71594	1626.83521	1521.59229	500.57458	1633.88062	1662.13586	611.22119	1576.19531	1531.78528	621.73431	1583.64355	1605.55298	643.12305	1423.73352	1609.86462	680.48120	1111.31104	1591.73633	521.66150	1346.56067	1597.33472	480.28000	1180.98132	1517.66553	707.43726	1247.70630	1749.74060	547.63318	1386.56433	1822.91187	521.37915	1194.71265	1831.45374	488.89478	1075.58826	1820.58923	436.64865	956.86963	1782.80579	400.52133	845.92859	1838.09692	409.18976	847.81110	1823.96057	374.53116	772.84717	1437.88989	586.24835	1367.81079	1372.12415	593.99200	1142.43616	1361.64197	577.52002	1030.31165	1363.56543	558.30145	894.77313	1400.37830	523.20471	802.02289	1358.98730	557.49194	794.42212	1366.20569	525.34912	728.50995	1719.72034	509.72455	946.70862	1480.99487	519.68420	944.67871	1674.60107	672.75385	971.78198	1525.85876	678.06134	972.02161	1752.50342	575.01196	644.44495	1709.25635	582.98462	468.03314	1710.05847	644.43817	281.43936	1666.16125	676.95691	74.60824	1629.98523	718.35199	40.55349	1641.96118	524.80548	35.12455	1437.61255	503.64688	653.67157	1466.88135	433.57651	488.48755	1464.19604	532.65155	324.01825	1506.12585	644.23438	139.51712	1558.85962	698.39435	125.42595	1522.18970	534.94281	53.07821																																				 
